<?xml version="1.0" encoding="UTF-8" standalone="no"?>

<svg version="1.1" xmlns:svg="http://www.w3.org/2000/svg" xmlns="http://www.w3.org/2000/svg" width="400" height="270" viewBox="-255 0 400 270">
  <defs>
<marker orient="auto" refY="0" refX="0" id="arrow" style="overflow:visible">
    <path fill="black" stroke="black" stroke-width="0.625" stroke-linejoin="round"
        d="M 8.7,4 -2.2,0 8.7,-4 c -1.75,2.4 -1.74,5.6 0,8 z"
        transform="matrix(-1,0,0,-1,-1,0)" />
    </marker>
<style>
    text { stroke:none ; fill:black }
    rect { stroke:black ; fill:white }
    line { strock:black }
    circle { stroke:none ; fill:white }
    .no-stroke { stroke : none }
    </style>
    </defs>

<g font-size="13" font-family="Times New Roman" stroke="black" text-anchor="middle">
    <text x="0" y="25">null</text>
    <line x1="0" y1="95" x2="0" y2="35" stroke="black" marker-end=" url(#arrow)"></line>
    <circle cx="0" cy="67" r="10" fill="white" />
    <text x="0" y="70">__proto__</text>
    
    <rect x="-50" y="95" width="100" height="55"></rect>
    <text x="0" y="117">Object</text>
    <text x="0" y="136">Prototype</text>

    <rect x="-250" y="95" width="100" height="55"></rect>
    <text x="-200" y="117">Object()</text>
    <text x="-200" y="136">Constructor</text>

    <line x1="-150" y1="112" x2="-50" y2="112" marker-end=" url(#arrow)"></line>
    <rect x="-132" y="107" width="65" height="10" class="no-stroke"></rect>
    <text x="-100" y="115">prototype</text>

    <line x1="-50" y1="132" x2="-150" y2="132" stroke="black" marker-end=" url(#arrow)"></line>
    <rect x="-132" y="127" width="65" height="10" class="no-stroke"></rect>
    <text x="-100" y="136">constructor</text>

    <line x1="0" y1="210" x2="0" y2="150" stroke="black" marker-end=" url(#arrow)"></line>
    <circle cx="0" cy="185" r="10" fill="white" />
    <text x="0" y="188">__proto__</text>

    <rect x="-50" y="210" width="100" height="55"></rect>
    <text x="0" y="232">Object</text>
    <text x="0" y="250">Instance</text>
    <text x="-40" y="207">o1:</text>

    <line x1="50" y1="225" x2="80" y2="225" stroke="black" marker-end=" url(#arrow)"></line>
    <text x="85" y="229" text-anchor="start" style="fill:green">firstName</text>
    <line x1="50" y1="245" x2="80" y2="245" stroke="black" marker-end=" url(#arrow)"></line>
    <text x="85" y="249" text-anchor="start" style="fill:green">lastName</text>

</g></svg>
