<?xml version="1.0" encoding="UTF-8" standalone="no"?>

<svg version="1.1" xmlns:svg="http://www.w3.org/2000/svg" xmlns="http://www.w3.org/2000/svg" width="440" height="260" viewBox="-220 -5 440 260">
  <defs>
<marker orient="auto" refY="0" refX="0" id="arrow" style="overflow:visible">
    <path stroke-linejoin="round" d="M 8.7,4 -2.2,0 8.7,-4 c -1.75,2.4 -1.74,5.6 0,8 z" transform="matrix(-1,0,0,-1,-1,0)" style="fill:black"/>
    </marker>
<style>
    text { stroke:none ; fill:black }
    rect { stroke:black ; fill:white }
    line { strock:black }
    circle { stroke:none ; fill:white }
    path { fill : none }
    .no-stroke { stroke : none }
    </style>
    </defs>

<g font-size="13" font-family="Times New Roman" stroke="black" text-anchor="middle">
    
<g transform="translate( 0, 0 )" >
<rect x="-50" y="0" width="100" height="50"></rect>
<text x="0" y="28">Step 1</text>
</g>

<g>
<g transform="translate( -55, 100 )" >
<rect x="-50" y="0" width="100" height="50"></rect>
<text x="0" y="28">Step 2</text>
</g>

<g transform="translate( +55, 100 )" >
<rect x="-50" y="0" width="100" height="50"></rect>
<text x="0" y="28">Step 3</text>
</g>

<g transform="translate(0, 50)">
<path d="M -5 0 C -5 40 -55 5 -55 50" marker-end=" url(#arrow)"/>
<path d="M 5 0 C 5 40 55 5 55 50" marker-end=" url(#arrow)"/>
<text x="-60" y="20">Success</text>
<text x="60" y="20">Fail</text>
</g></g>

<g transform="translate( -55, 100 )" >
<rect x="-50" y="0" width="100" height="50"></rect>
<text x="0" y="28">Step 2</text>
</g>

<g transform="translate( +55, 100 )" >
<rect x="-50" y="0" width="100" height="50"></rect>
<text x="0" y="28">Step 3</text>
</g>

<g transform="translate(0, 50)">
<path d="M -5 0 C -5 40 -55 5 -55 50" marker-end=" url(#arrow)"/>
<path d="M 5 0 C 5 40 55 5 55 50" marker-end=" url(#arrow)"/>
<text x="-60" y="20">Success</text>
<text x="60" y="20">Fail</text>
</g>

 <g transform="translate( -165, 200 )" >
<rect x="-50" y="0" width="100" height="50"></rect>
<text x="0" y="28">Step 4</text>
</g>

 <g transform="translate( -55, 200 )" >
<rect x="-50" y="0" width="100" height="50"></rect>
<text x="0" y="28">Step 5</text>
</g>

 <g transform="translate( 55, 200 )" >
<rect x="-50" y="0" width="100" height="50"></rect>
<text x="0" y="28">Step 6</text>
</g>

 <g transform="translate( 165, 200 )" >
<rect x="-50" y="0" width="100" height="50"></rect>
<text x="0" y="28">Step 7</text>
</g>

<g transform="translate(-55, 150)">
<path d="M -5 0 C -5 40 -90 0 -110 50" marker-end=" url(#arrow)"/>
<path d="M 5 0 L 5 50" marker-end=" url(#arrow)"/>
<text x="-100" y="20">Success</text>
<text x="20" y="25">Fail</text>
</g>

<g transform="translate(55, 150)">
<path d="M 5 0 C 5 40 90 0 110 50" marker-end=" url(#arrow)"/>
<path d="M -5 0 L -5 50" marker-end=" url(#arrow)"/>
<text x="100" y="20">Success</text>
<text x="-20" y="25">Fail</text>
</g>

</g></svg>
