<?xml version="1.0" standalone="no"?>
<!DOCTYPE svg PUBLIC "-//W3C//DTD SVG 1.1//EN" "http://www.w3.org/Graphics/SVG/1.1/DTD/svg11.dtd">
<svg viewBox = "0 0 100 100" version="1.1" xmlns="http://www.w3.org/2000/svg">
<style>
text { 
	font-family : "Arial Narrow", sans-serif ;
	font-size : 10px ;
	text-anchor: middle ;
	}
circle {
	stroke-width : 0.8 ;
	stroke : black ;
	fill : white ;
	}
line {
	stroke-width : 0.2 ;
	stroke : black ;
	}
</style>
<circle cx="50" cy="50" r="48" />
<circle cx="50" cy="50" r="28" />

<line x1="57.25" y1="22.95" x2="62.42" y2="3.64" />
<line x1="69.80" y1="30.20" x2="83.94" y2="16.06" />
<line x1="77.05" y1="42.75" x2="96.36" y2="37.58" />
<line x1="77.05" y1="57.25" x2="96.36" y2="62.42" />
<line x1="69.80" y1="69.80" x2="83.94" y2="83.94" />
<line x1="57.25" y1="77.05" x2="62.42" y2="96.36" />
<line x1="42.75" y1="77.05" x2="37.58" y2="96.36" />
<line x1="30.20" y1="69.80" x2="16.06" y2="83.94" />
<line x1="22.95" y1="57.25" x2="3.64" y2="62.42" />
<line x1="22.95" y1="42.75" x2="3.64" y2="37.58" />
<line x1="30.20" y1="30.20" x2="16.06" y2="16.06" />
<line x1="42.75" y1="22.95" x2="37.58" y2="3.64" />

<text x="50.00" y="15.00">C</text>
<text x="69.00" y="20.09">•</text>
<text x="82.909" y="34.00">D</text>
<text x="88.00" y="53.00">•</text>
<text x="82.909" y="72.00">E</text>
<text x="69.00" y="85.909">F</text>
<text x="50.00" y="91.00">•</text>
<text x="31.00" y="85.909">G</text>
<text x="17.091" y="72.00">•</text>
<text x="12.00" y="53.00">A</text>
<text x="17.091" y="34.00">•</text>
<text x="31.00" y="20.091">B</text>

</svg>
